<svg width="92" height="96" viewBox="0 0 92 96" fill="none" xmlns="http://www.w3.org/2000/svg">
<path d="M47.931 53.5473C47.6738 53.5514 47.42 53.6066 47.1839 53.71C46.9479 53.8135 46.7343 53.9631 46.5553 54.1502C46.3763 54.3372 46.2355 54.558 46.1408 54.8002C46.0461 55.0424 45.9994 55.3012 46.0035 55.5617V87.3964C46.0034 87.407 46.0034 87.4176 46.0035 87.4281C46.0686 91.7475 49.6215 95.2303 53.8932 95.1988C58.1654 95.1671 61.668 91.628 61.6682 87.3081C61.6718 87.0452 61.6239 86.7842 61.5271 86.5403C61.4304 86.2964 61.2867 86.0743 61.1046 85.8871C60.9224 85.7 60.7053 85.5513 60.4659 85.4499C60.2265 85.3485 59.9696 85.2964 59.7101 85.2964C59.4506 85.2964 59.1937 85.3485 58.9543 85.4499C58.7149 85.5513 58.4978 85.7 58.3156 85.8871C58.1334 86.0743 57.9898 86.2964 57.893 86.5403C57.7963 86.7842 57.7483 87.0452 57.752 87.3081C57.7519 89.4796 56.0477 91.2155 53.8664 91.2321C51.6846 91.252 49.9524 89.5412 49.9196 87.37V55.5624C49.9238 55.2967 49.8751 55.0327 49.7767 54.7864C49.6782 54.5401 49.5318 54.3165 49.3464 54.1286C49.1609 53.9407 48.94 53.7926 48.6969 53.6928C48.4537 53.5931 48.1933 53.5432 47.931 53.5473Z"  />
<path d="M20.5407 51.564C12.4021 51.564 5.47849 57.4743 4.89133 65.2694C4.86743 65.5314 4.89525 65.7955 4.97315 66.0466C5.05106 66.2976 5.17749 66.5304 5.34509 66.7315C5.51269 66.9325 5.71811 67.0978 5.94938 67.2176C6.18065 67.3375 6.43316 67.4097 6.69218 67.4297C6.95121 67.4498 7.21159 67.4172 7.45814 67.3343C7.7047 67.2514 7.93251 67.1199 8.12831 66.947C8.32411 66.774 8.48399 66.5633 8.59862 66.3272C8.71325 66.091 8.78036 65.834 8.79602 65.5713C9.21587 59.9978 14.2577 55.5335 20.5445 55.5307C26.8314 55.5307 31.8751 59.9904 32.3007 65.5638C32.3181 65.8254 32.3865 66.0807 32.502 66.3153C32.6175 66.5499 32.7777 66.759 32.9734 66.9305C33.1692 67.102 33.3965 67.2325 33.6423 67.3145C33.8882 67.3964 34.1476 67.4282 34.4056 67.4079C34.6637 67.3877 34.9152 67.3159 35.1456 67.1966C35.3761 67.0773 35.5809 66.913 35.7483 66.7131C35.9156 66.5131 36.0422 66.2816 36.1207 66.0318C36.1991 65.782 36.2279 65.5189 36.2054 65.2578C35.6103 57.4633 28.6793 51.5605 20.5407 51.564Z"  />
<path d="M47.9539 51.564C39.8153 51.564 32.8917 57.4743 32.3045 65.2694C32.2806 65.5314 32.3084 65.7955 32.3863 66.0466C32.4642 66.2976 32.5907 66.5304 32.7583 66.7315C32.9259 66.9325 33.1313 67.0978 33.3626 67.2176C33.5938 67.3375 33.8463 67.4097 34.1054 67.4297C34.3644 67.4498 34.6248 67.4172 34.8713 67.3343C35.1179 67.2515 35.3457 67.1197 35.5415 66.9467C35.7373 66.7738 35.8972 66.5633 36.0118 66.3272C36.1264 66.091 36.1935 65.834 36.2092 65.5713C36.6291 59.9978 41.6709 55.5335 47.9577 55.5307C54.2446 55.5307 59.2883 59.9904 59.7139 65.5638C59.7313 65.8254 59.7997 66.0807 59.9152 66.3153C60.0306 66.5499 60.1909 66.759 60.3866 66.9305C60.5823 67.102 60.8097 67.2325 61.0555 67.3145C61.3013 67.3964 61.5608 67.4282 61.8188 67.4079C62.0768 67.3877 62.3283 67.3159 62.5588 67.1966C62.7893 67.0773 62.9941 66.913 63.1614 66.7131C63.3288 66.5131 63.4554 66.2816 63.5338 66.0318C63.6123 65.782 63.6411 65.5189 63.6186 65.2578C63.0234 57.4633 56.0925 51.5605 47.9539 51.564Z"  />
<path d="M75.3671 51.564C67.2285 51.564 60.3049 57.4743 59.7177 65.2694C59.6938 65.5314 59.7216 65.7955 59.7995 66.0466C59.8774 66.2976 60.0039 66.5304 60.1715 66.7315C60.3391 66.9325 60.5445 67.0978 60.7758 67.2176C61.007 67.3375 61.2595 67.4097 61.5186 67.4297C61.7776 67.4498 62.038 67.4172 62.2845 67.3343C62.5311 67.2515 62.7589 67.1197 62.9547 66.9467C63.1505 66.7738 63.3104 66.5633 63.425 66.3272C63.5396 66.091 63.6067 65.834 63.6224 65.5713C64.0423 59.9978 69.0841 55.5335 75.3709 55.5307C81.6578 55.5307 86.7015 59.9904 87.1271 65.5638C87.1445 65.8254 87.2129 66.0807 87.3284 66.3153C87.4438 66.5499 87.6041 66.759 87.7998 66.9305C87.9955 67.102 88.2229 67.2325 88.4687 67.3145C88.7146 67.3964 88.974 67.4282 89.232 67.4079C89.49 67.3877 89.7416 67.3159 89.972 67.1966C90.2025 67.0773 90.4073 66.913 90.5746 66.7131C90.742 66.5131 90.8686 66.2816 90.947 66.0318C91.0255 65.782 91.0543 65.5189 91.0318 65.2578C90.4366 57.4633 83.5057 51.5605 75.3671 51.564Z"  />
<path d="M47.9424 23.7965C25.2714 23.8163 6.46969 41.9671 4.89131 65.2849C4.86356 65.5501 4.88889 65.8181 4.9658 66.0732C5.0427 66.3283 5.16958 66.565 5.33887 66.7693C5.50816 66.9735 5.71637 67.1411 5.95106 67.2619C6.18575 67.3828 6.44209 67.4546 6.70476 67.4728C6.96743 67.4911 7.23103 67.4555 7.47981 67.3682C7.72858 67.2809 7.95742 67.1436 8.15265 66.9646C8.34787 66.7857 8.50546 66.5687 8.616 66.3267C8.72654 66.0846 8.78777 65.8226 8.79601 65.5561C10.2391 44.2376 27.332 27.7734 47.9424 27.7633C68.5528 27.7435 85.6644 44.2001 87.1271 65.5173C87.1361 65.7835 87.1979 66.0453 87.3089 66.2867C87.4199 66.5282 87.5778 66.7444 87.7731 66.9228C87.9684 67.1011 88.1972 67.2378 88.4458 67.3246C88.6944 67.4115 88.9578 67.4468 89.2201 67.4283C89.4824 67.4098 89.7384 67.338 89.9728 67.2172C90.2071 67.0963 90.415 66.9287 90.5841 66.7247C90.7532 66.5207 90.8799 66.2843 90.9569 66.0296C91.0338 65.7749 91.0593 65.5072 91.0318 65.2423C89.4319 41.926 70.6135 23.7854 47.9424 23.7965Z"  />
<path fill-rule="evenodd" clip-rule="evenodd" d="M47.931 17.8465C47.6738 17.8506 47.42 17.9059 47.1839 18.0093C46.9479 18.1128 46.7343 18.2623 46.5553 18.4493C46.3763 18.6364 46.2355 18.8573 46.1408 19.0995C46.0461 19.3417 45.9994 19.6005 46.0035 19.8609V25.7531C45.9998 26.0159 46.0477 26.2768 46.1445 26.5207C46.2413 26.7646 46.3849 26.9866 46.5671 27.1738C46.7493 27.3609 46.9664 27.5096 47.2058 27.611C47.4452 27.7124 47.7021 27.7646 47.9616 27.7646C48.2211 27.7646 48.478 27.7124 48.7174 27.611C48.9567 27.5096 49.1738 27.3609 49.356 27.1738C49.5382 26.9866 49.6819 26.7646 49.7786 26.5207C49.8754 26.2768 49.9233 26.0159 49.9196 25.7531V19.8609C49.9238 19.5953 49.8751 19.3314 49.7767 19.0851C49.6782 18.8388 49.5318 18.6151 49.3464 18.4272C49.1609 18.2393 48.94 18.0912 48.6969 17.9914C48.4537 17.8916 48.1933 17.8423 47.931 17.8465Z"  />
<path fill-rule="evenodd" clip-rule="evenodd" d="M6.78439 -7.94633e-05C6.27569 0.0152523 5.79287 0.230523 5.4382 0.600223L1.56027 4.5244C1.37237 4.70716 1.22236 4.92618 1.11902 5.1684C1.01567 5.41062 0.961086 5.67129 0.958444 5.93515C0.955803 6.19901 1.00516 6.46075 1.10363 6.70505C1.2021 6.94934 1.3477 7.17118 1.53191 7.35777C1.71612 7.54435 1.93522 7.69188 2.1764 7.79162C2.41758 7.89136 2.67598 7.94138 2.93648 7.9387C3.19697 7.93603 3.45432 7.88068 3.69345 7.77601C3.93258 7.67133 4.1487 7.51941 4.32913 7.32908L8.20706 3.40502C8.49005 3.12644 8.68335 2.76785 8.76162 2.37607C8.83989 1.98429 8.79947 1.5776 8.64568 1.20948C8.49188 0.841369 8.23188 0.52894 7.89974 0.313085C7.56761 0.0972301 7.17884 -0.0118887 6.78439 -7.94633e-05Z"  />
<path fill-rule="evenodd" clip-rule="evenodd" d="M30.2814 -7.93926e-05C29.7727 0.0152524 29.2899 0.230523 28.9352 0.600223L25.0573 4.5244C24.8694 4.70716 24.7194 4.92618 24.6161 5.1684C24.5127 5.41062 24.4581 5.67129 24.4555 5.93515C24.4528 6.19901 24.5022 6.46063 24.6007 6.70493C24.6991 6.94922 24.8447 7.17118 25.0289 7.35777C25.2132 7.54435 25.4323 7.69188 25.6734 7.79162C25.9146 7.89136 26.173 7.94138 26.4335 7.9387C26.694 7.93603 26.9514 7.88068 27.1905 7.77601C27.4296 7.67133 27.6457 7.51941 27.8262 7.32908L31.7041 3.40502C31.9871 3.12644 32.1804 2.76785 32.2587 2.37607C32.3369 1.98429 32.2965 1.5776 32.1427 1.20948C31.9889 0.841369 31.7289 0.528939 31.3968 0.313085C31.0646 0.0972304 30.6759 -0.0118892 30.2814 -7.93926e-05Z"  />
<path fill-rule="evenodd" clip-rule="evenodd" d="M53.7784 -7.9447e-05C53.2697 0.0152524 52.7869 0.230523 52.4322 0.600223L48.5543 4.5244C48.3664 4.70716 48.2164 4.92618 48.1131 5.1684C48.0097 5.41062 47.9551 5.67129 47.9525 5.93515C47.9499 6.19901 47.9992 6.46063 48.0977 6.70493C48.1962 6.94922 48.3418 7.17118 48.526 7.35777C48.7102 7.54435 48.9293 7.69188 49.1704 7.79162C49.4116 7.89136 49.67 7.94138 49.9305 7.9387C50.191 7.93603 50.4484 7.88068 50.6875 7.77601C50.9266 7.67133 51.1427 7.51941 51.3232 7.32908L55.2011 3.40502C55.4841 3.12644 55.6774 2.76785 55.7557 2.37607C55.8339 1.98429 55.7935 1.5776 55.6397 1.20948C55.4859 0.841369 55.2259 0.52894 54.8938 0.313085C54.5616 0.0972302 54.1729 -0.0118888 53.7784 -7.9447e-05Z"  />
<path fill-rule="evenodd" clip-rule="evenodd" d="M77.2755 -7.9447e-05C76.7668 0.0152524 76.2839 0.230523 75.9293 0.600223L72.0514 4.5244C71.8635 4.70716 71.7134 4.92618 71.6101 5.1684C71.5068 5.41062 71.4522 5.67129 71.4495 5.93515C71.4469 6.19901 71.4963 6.46063 71.5947 6.70493C71.6932 6.94922 71.8388 7.17118 72.023 7.35777C72.2072 7.54435 72.4263 7.69188 72.6675 7.79162C72.9087 7.89136 73.1671 7.94138 73.4276 7.9387C73.6881 7.93603 73.9454 7.88068 74.1845 7.77601C74.4237 7.67133 74.6398 7.51941 74.8202 7.32908L78.6981 3.40502C78.9811 3.12644 79.1744 2.76785 79.2527 2.37607C79.331 1.98429 79.2906 1.5776 79.1368 1.20948C78.983 0.841369 78.723 0.52894 78.3908 0.313085C78.0587 0.0972302 77.6699 -0.0118888 77.2755 -7.9447e-05Z"  />
<path fill-rule="evenodd" clip-rule="evenodd" d="M18.5329 7.93336C18.0242 7.94869 17.5414 8.16408 17.1867 8.53378L13.3088 12.458C13.1209 12.6407 12.9709 12.8596 12.8675 13.1018C12.7642 13.3441 12.7096 13.6047 12.7069 13.8686C12.7043 14.1325 12.7537 14.3942 12.8521 14.6385C12.9506 14.8828 13.0962 15.1047 13.2804 15.2913C13.4646 15.4779 13.6837 15.6254 13.9249 15.7252C14.1661 15.8249 14.4245 15.8749 14.685 15.8723C14.9455 15.8696 15.2028 15.8142 15.442 15.7096C15.6811 15.6049 15.8972 15.453 16.0776 15.2626L19.9556 11.3386C20.2386 11.06 20.4319 10.7013 20.5101 10.3095C20.5884 9.91773 20.548 9.51116 20.3942 9.14304C20.2404 8.77493 19.9804 8.4625 19.6482 8.24665C19.3161 8.03079 18.9273 7.92155 18.5329 7.93336Z"  />
<path fill-rule="evenodd" clip-rule="evenodd" d="M42.0299 7.93336C41.5212 7.94869 41.0384 8.16408 40.6837 8.53378L36.8058 12.458C36.6179 12.6407 36.4679 12.8596 36.3646 13.1018C36.2612 13.3441 36.2066 13.6047 36.204 13.8686C36.2013 14.1325 36.2507 14.3942 36.3492 14.6385C36.4476 14.8828 36.5932 15.1047 36.7775 15.2913C36.9617 15.4779 37.1808 15.6254 37.4219 15.7252C37.6631 15.8249 37.9215 15.8748 38.182 15.8721C38.4425 15.8695 38.6999 15.8142 38.939 15.7096C39.1781 15.6049 39.3942 15.453 39.5747 15.2626L43.4526 11.3386C43.7356 11.06 43.9289 10.7013 44.0072 10.3095C44.0854 9.91773 44.045 9.51116 43.8912 9.14304C43.7374 8.77493 43.4774 8.4625 43.1453 8.24665C42.8131 8.03079 42.4244 7.92155 42.0299 7.93336Z"  />
<path fill-rule="evenodd" clip-rule="evenodd" d="M65.527 7.93336C65.0183 7.94869 64.5354 8.16408 64.1808 8.53378L60.3029 12.458C60.115 12.6407 59.9649 12.8596 59.8616 13.1018C59.7583 13.3441 59.7037 13.6047 59.701 13.8686C59.6984 14.1325 59.7478 14.3942 59.8462 14.6385C59.9447 14.8828 60.0903 15.1047 60.2745 15.2913C60.4587 15.4779 60.6778 15.6254 60.919 15.7252C61.1602 15.8249 61.4186 15.8748 61.6791 15.8721C61.9396 15.8695 62.1969 15.8142 62.436 15.7096C62.6752 15.6049 62.8913 15.453 63.0717 15.2626L66.9496 11.3386C67.2326 11.06 67.4259 10.7013 67.5042 10.3095C67.5825 9.91773 67.5421 9.51116 67.3883 9.14304C67.2345 8.77493 66.9745 8.4625 66.6423 8.24665C66.3102 8.03079 65.9214 7.92155 65.527 7.93336Z"  />
<path fill-rule="evenodd" clip-rule="evenodd" d="M89.024 7.93336C88.5153 7.94869 88.0325 8.16408 87.6778 8.53378L83.7999 12.458C83.612 12.6407 83.462 12.8596 83.3586 13.1018C83.2553 13.3441 83.2007 13.6047 83.1981 13.8686C83.1954 14.1325 83.2448 14.3942 83.3433 14.6385C83.4417 14.8828 83.5873 15.1047 83.7715 15.2913C83.9557 15.4779 84.1748 15.6254 84.416 15.7252C84.6572 15.8249 84.9156 15.8748 85.1761 15.8721C85.4366 15.8695 85.6939 15.8142 85.9331 15.7096C86.1722 15.6049 86.3883 15.453 86.5687 15.2626L90.4467 11.3386C90.7297 11.06 90.923 10.7013 91.0012 10.3095C91.0795 9.91773 91.0391 9.51116 90.8853 9.14304C90.7315 8.77493 90.4715 8.4625 90.1394 8.24665C89.8072 8.03079 89.4185 7.92155 89.024 7.93336Z"  />
<path fill-rule="evenodd" clip-rule="evenodd" d="M6.78439 15.8669C6.27569 15.8823 5.79287 16.0975 5.4382 16.4672L1.56027 20.3915C1.37237 20.5743 1.22236 20.7932 1.11902 21.0354C1.01567 21.2776 0.961086 21.5383 0.958444 21.8022C0.955803 22.066 1.00516 22.3278 1.10363 22.5721C1.2021 22.8163 1.3477 23.0383 1.53191 23.2249C1.71612 23.4115 1.93522 23.5589 2.1764 23.6586C2.41758 23.7584 2.67598 23.8084 2.93648 23.8057C3.19697 23.803 3.45432 23.7478 3.69345 23.6431C3.93258 23.5385 4.1487 23.3864 4.32913 23.1961L8.20706 19.2721C8.49005 18.9936 8.68335 18.6349 8.76162 18.2431C8.83989 17.8513 8.79947 17.4447 8.64568 17.0766C8.49188 16.7085 8.23188 16.3959 7.89974 16.1801C7.56761 15.9642 7.17884 15.8551 6.78439 15.8669Z"  />
<path fill-rule="evenodd" clip-rule="evenodd" d="M30.2814 15.8669C29.7727 15.8823 29.2899 16.0975 28.9352 16.4672L25.0573 20.3915C24.8694 20.5743 24.7194 20.7932 24.6161 21.0354C24.5127 21.2776 24.4581 21.5383 24.4555 21.8022C24.4528 22.066 24.5022 22.3278 24.6007 22.5721C24.6991 22.8163 24.8447 23.0383 25.0289 23.2249C25.2132 23.4115 25.4323 23.5589 25.6734 23.6586C25.9146 23.7584 26.173 23.8084 26.4335 23.8057C26.694 23.803 26.9514 23.7478 27.1905 23.6431C27.4296 23.5385 27.6457 23.3864 27.8262 23.1961L31.7041 19.2721C31.9871 18.9936 32.1804 18.6349 32.2587 18.2431C32.3369 17.8513 32.2965 17.4447 32.1427 17.0766C31.9889 16.7085 31.7289 16.3959 31.3968 16.1801C31.0646 15.9642 30.6759 15.8551 30.2814 15.8669Z"  />
<path fill-rule="evenodd" clip-rule="evenodd" d="M77.2755 15.8669C76.7668 15.8823 76.2839 16.0975 75.9293 16.4672L72.0514 20.3915C71.8635 20.5743 71.7134 20.7932 71.6101 21.0354C71.5068 21.2776 71.4522 21.5383 71.4495 21.8022C71.4469 22.066 71.4963 22.3278 71.5947 22.5721C71.6932 22.8163 71.8388 23.0383 72.023 23.2249C72.2072 23.4115 72.4263 23.5589 72.6675 23.6586C72.9087 23.7584 73.1671 23.8084 73.4276 23.8057C73.6881 23.803 73.9454 23.7478 74.1845 23.6431C74.4237 23.5385 74.6398 23.3864 74.8202 23.1961L78.6981 19.2721C78.9811 18.9936 79.1744 18.6349 79.2527 18.2431C79.331 17.8513 79.2906 17.4447 79.1368 17.0766C78.983 16.7085 78.723 16.3959 78.3908 16.1801C78.0587 15.9642 77.6699 15.8551 77.2755 15.8669Z"  />
<path fill-rule="evenodd" clip-rule="evenodd" d="M16.5748 23.8005C16.0661 23.8159 15.5833 24.0311 15.2286 24.4008L11.3507 28.325C11.1628 28.5078 11.0128 28.7267 10.9095 28.9689C10.8061 29.2111 10.7515 29.4718 10.7489 29.7356C10.7462 29.9995 10.7956 30.2612 10.8941 30.5055C10.9925 30.7498 11.1381 30.9718 11.3223 31.1584C11.5066 31.345 11.7257 31.4925 11.9668 31.5922C12.208 31.692 12.4664 31.742 12.7269 31.7393C12.9874 31.7366 13.2448 31.6813 13.4839 31.5766C13.723 31.4719 13.9391 31.32 14.1196 31.1297L17.9975 27.2056C18.2805 26.927 18.4738 26.5683 18.5521 26.1765C18.6303 25.7848 18.5899 25.3782 18.4361 25.0101C18.2823 24.642 18.0223 24.3295 17.6902 24.1137C17.358 23.8978 16.9693 23.7887 16.5748 23.8005Z"  />
<path fill-rule="evenodd" clip-rule="evenodd" d="M89.024 23.8005C88.5153 23.8159 88.0325 24.0311 87.6778 24.4008L83.7999 28.325C83.612 28.5078 83.462 28.7267 83.3586 28.9689C83.2553 29.2111 83.2007 29.4718 83.1981 29.7356C83.1954 29.9995 83.2448 30.2612 83.3433 30.5055C83.4417 30.7498 83.5873 30.9718 83.7715 31.1584C83.9557 31.345 84.1748 31.4925 84.416 31.5922C84.6572 31.692 84.9156 31.742 85.1761 31.7393C85.4366 31.7366 85.6939 31.6813 85.9331 31.5766C86.1722 31.4719 86.3883 31.32 86.5687 31.1297L90.4467 27.2056C90.7297 26.927 90.923 26.5683 91.0012 26.1765C91.0795 25.7848 91.0391 25.3782 90.8853 25.0101C90.7315 24.642 90.4715 24.3295 90.1394 24.1137C89.8072 23.8978 89.4185 23.7887 89.024 23.8005Z"  />
</svg>
