<svg width="82" height="72" viewBox="0 0 82 72" fill="none" xmlns="http://www.w3.org/2000/svg">
<path d="M14.54 39.3C12.0924 39.3013 9.68756 38.6582 7.56735 37.4352C5.44714 36.2123 3.68631 34.4527 2.46192 32.3333C1.23752 30.2139 0.592741 27.8095 0.592407 25.3619C0.592074 22.9143 1.2362 20.5097 2.46001 18.39L10.75 3.99999C11.1362 3.33583 11.69 2.78465 12.3559 2.40155C13.0219 2.01844 13.7767 1.81681 14.545 1.81681C15.3133 1.81681 16.0681 2.01844 16.7341 2.40155C17.4 2.78465 17.9538 3.33583 18.34 3.99999L26.62 18.35C27.8538 20.4707 28.506 22.8795 28.5108 25.333C28.5155 27.7865 27.8727 30.1978 26.6471 32.3233C25.4215 34.4488 23.6567 36.2132 21.5308 37.4382C19.405 38.6632 16.9935 39.3054 14.54 39.3ZM31.59 44.62C31.2737 44.0695 30.8177 43.6121 30.2682 43.2941C29.7186 42.9761 29.0949 42.8087 28.46 42.8087C27.8251 42.8087 27.2014 42.9761 26.6519 43.2941C26.1023 43.6121 25.6464 44.0695 25.33 44.62L19.24 55.17C18.3041 56.7889 17.8109 58.6257 17.81 60.4957C17.8092 62.3657 18.3007 64.203 19.2353 65.8227C20.1698 67.4425 21.5143 68.7876 23.1336 69.7228C24.753 70.6581 26.59 71.1505 28.46 71.1505C30.33 71.1505 32.1671 70.6581 33.7864 69.7228C35.4057 68.7876 36.7502 67.4425 37.6848 65.8227C38.6193 64.203 39.1109 62.3657 39.11 60.4957C39.1092 58.6257 38.616 56.7889 37.68 55.17L31.59 44.62ZM78.49 48.94C75.6111 53.9247 70.8699 57.5617 65.3094 59.0507C59.749 60.5397 53.8248 59.7589 48.84 56.88C43.8553 54.0011 40.2183 49.2599 38.7293 43.6994C37.2403 38.139 38.0211 32.2147 40.9 27.23L54.35 3.93999C54.8913 3.00126 55.6703 2.22166 56.6086 1.67961C57.5469 1.13755 58.6114 0.852173 59.695 0.852173C60.7786 0.852173 61.8431 1.13755 62.7814 1.67961C63.7197 2.22166 64.4987 3.00126 65.04 3.93999L78.49 27.23C80.4153 30.5236 81.4299 34.27 81.4299 38.085C81.4299 41.9 80.4153 45.6464 78.49 48.94ZM73.23 38.57C73.2446 38.1722 73.1006 37.7848 72.8296 37.4932C72.5586 37.2016 72.1828 37.0296 71.785 37.015C71.3872 37.0004 70.9999 37.1444 70.7082 37.4154C70.4166 37.6864 70.2446 38.0622 70.23 38.46C70.1614 40.1812 69.674 41.8597 68.81 43.35C67.893 44.9568 66.565 46.2908 64.9624 47.2151C63.3597 48.1395 61.5401 48.6209 59.69 48.61C59.2922 48.61 58.9107 48.768 58.6294 49.0493C58.3481 49.3306 58.19 49.7122 58.19 50.11C58.19 50.5078 58.3481 50.8893 58.6294 51.1706C58.9107 51.452 59.2922 51.61 59.69 51.61C62.0674 51.6233 64.4056 51.0043 66.465 49.8164C68.5245 48.6285 70.2311 46.9145 71.41 44.85C72.5161 42.9348 73.1407 40.7798 73.23 38.57Z" />
</svg>
